<?xml version="1.0" encoding="utf-8"?>
<!-- Generator: Adobe Illustrator 18.0.0, SVG Export Plug-In . SVG Version: 6.00 Build 0)  -->
<!DOCTYPE svg PUBLIC "-//W3C//DTD SVG 1.1//EN" "http://www.w3.org/Graphics/SVG/1.1/DTD/svg11.dtd">
<svg version="1.1" id="Capa_1" xmlns="http://www.w3.org/2000/svg" xmlns:xlink="http://www.w3.org/1999/xlink" x="0px" y="0px"
	 viewBox="0 0 1920 2200" enable-background="new 0 0 1920 2200" xml:space="preserve">
<g>
	<path fill="#556080" d="M978.5,159.1C448.4,150.1,11.3,572.5,2.2,1102.6c-5.1,300.6,128.8,570.7,342.1,750.4
		c13.9-12.2,28.9-23.3,45.5-32.4l286.4-156.2c37.6-20.5,61-59.9,61-102.7v-117.4c0,0-84.1-100.6-116.1-240.3
		c-26.6-17.2-44.4-46.9-44.4-80.8V994.7c0-28.3,12.6-53.5,32.1-71.2V737.8c0,0-38.1-289,353.2-289s353.2,289,353.2,289v185.7
		c19.6,17.7,32.1,42.9,32.1,71.2v128.5c0,43.2-29,79.5-68.3,91.7c-21.9,68.1-53.5,133.1-95.3,192.1c-10.5,14.9-20.4,27.5-29,37.3
		v120.3c0,44.3,25,84.8,64.7,104.6l306.7,153.3c18.4,9.2,35,20.8,50.4,33.8c206.9-172.5,340.5-430.4,345.5-720.9
		C1931,605.3,1508.6,168.2,978.5,159.1z"/>
</g>
<path fill="#E7ECED" d="M1576.6,1856.4c-166.5,138.9-380.7,222.6-614.5,222.6c-59.2,0-117.2-5.4-173.4-15.6
	c154.8-29.1,295.8-97.6,412.1-194.6c-14.5-12.3-30.3-23.3-47.7-32l-289.8-144.9c-37.4-18.7-61.1-57-61.1-98.8v-113.7
	c8.1-9.3,17.4-21.2,27.4-35.3c39.5-55.8,69.4-117.2,90.1-181.5c37.2-11.5,64.6-45.8,64.6-86.6v-121.4c0-26.7-11.9-50.6-30.3-67.3
	V811.9c0,0,32.2-243.9-276.4-270.7c50.5-51.2,137-92.4,284.7-92.4c391.4,0,353.2,289,353.2,289v185.7c19.5,17.7,32.1,42.9,32.1,71.2
	v128.5c0,43.2-29,79.5-68.3,91.7c-21.9,68.1-53.5,133.1-95.3,192.1c-10.6,14.9-20.4,27.5-29,37.3v120.3c0,44.3,25,84.8,64.7,104.6
	l306.7,153.4C1544.6,1831.8,1561.3,1843.5,1576.6,1856.4z"/>
<path fill="#E7ECED" d="M1200.7,1868.7c-116.3,97-257.2,165.5-412.1,194.6c-167.5-30.6-319.7-104.7-444.7-210.1
	c14.1-12.3,29.2-23.6,46-32.7l286.4-156.2c37.6-20.5,61-59.9,61-102.6v-117.4c0,0-84-100.6-116.1-240.3
	c-26.6-17.2-44.4-47-44.4-80.8V994.7c0-28.3,12.5-53.5,32.1-71.2V737.8c0,0-14.8-112.1,68.5-196.6C986,568,953.8,811.9,953.8,811.9
	v175.4c18.4,16.7,30.3,40.6,30.3,67.3v121.4c0,40.8-27.4,75.1-64.6,86.6c-20.7,64.4-50.6,125.8-90.1,181.5
	c-10,14.1-19.3,26-27.4,35.3V1593c0,41.9,23.6,80.1,61.1,98.8l289.8,144.9C1170.5,1845.4,1186.2,1856.5,1200.7,1868.7z"/>
<path opacity="0.5" fill="#E7ECED" d="M298.1,1252.3c30.3,132,109.7,227,109.7,227v110.9c0,40.4-22.1,77.6-57.6,97l-121,51
	c11.1,20.4,54.1,53.9,68.1,72.5c15.2,19.3,29,25.6,46.6,42.6c11.9-9.8,32.1-25.1,46-32.7l286.4-156.2c37.6-20.5,61-59.9,61-102.6
	v-117.4c0,0-84-100.6-116.1-240.3c-26.6-17.2-44.4-47-44.4-80.8V994.7c0-28.3,12.5-53.5,32.1-71.2V737.8c0,0-14.8-112.1,68.5-196.6
	c-17.9-1.6-37-2.4-57.3-2.4c-369.7,0-333.7,273-333.7,273v175.4c-18.5,16.7-30.3,40.6-30.3,67.3v121.4
	C256.1,1207.9,272.9,1236,298.1,1252.3z"/>
<path opacity="0.5" fill="#E7ECED" d="M1555.3,1848.4c2.6-3,14.6,10.8,18.3,9c23.7-11.9,40.3-33.3,63.4-56.9
	c9.6-7.7,14.6-16.2,22.4-25.8c0.9-1.2,2-2.2,3.2-3.2l-119.3-81.4c-35.5-19.4-57.6-56.6-57.6-97v-110.9c0,0,79.4-95,109.7-227
	c25.2-16.3,42-44.4,42-76.4v-121.4c0-26.7-11.8-50.6-30.3-67.3V814.9c0,0,36-273-333.7-273c-20.3,0-39.4,0.8-57.3,2.4
	c83.3,84.6,68.5,196.6,68.5,196.6v185.7c19.6,17.7,32.1,42.9,32.1,71.2v128.5c0,33.8-17.8,63.6-44.4,80.8
	c-32.1,139.7-116.1,240.3-116.1,240.3v117.4c0,42.8,23.4,82.1,61,102.6l286.4,156.2c13.9,7.6,58.2,24.1,70.1,33.9
	C1576.9,1854.3,1549.9,1846.7,1555.3,1848.4z"/>
</svg>
