<?xml version="1.0" encoding="UTF-8" standalone="no"?>
<!-- Created with Inkscape (http://www.inkscape.org/) -->

<svg
   xmlns:dc="http://purl.org/dc/elements/1.1/"
   xmlns:cc="http://creativecommons.org/ns#"
   xmlns:rdf="http://www.w3.org/1999/02/22-rdf-syntax-ns#"
   xmlns:svg="http://www.w3.org/2000/svg"
   xmlns="http://www.w3.org/2000/svg"
   xmlns:sodipodi="http://sodipodi.sourceforge.net/DTD/sodipodi-0.dtd"
   xmlns:inkscape="http://www.inkscape.org/namespaces/inkscape"
   width="100mm"
   height="100mm"
   viewBox="0 0 354.33071 354.33071"
   id="svg2"
   version="1.1"
   inkscape:version="0.91 r13725"
   sodipodi:docname="menu-group.svg">
  <defs
     id="defs4" />
  <sodipodi:namedview
     id="base"
     pagecolor="#000000"
     bordercolor="#666666"
     borderopacity="1.0"
     inkscape:pageopacity="0"
     inkscape:pageshadow="2"
     inkscape:zoom="0.35"
     inkscape:cx="561.67609"
     inkscape:cy="47.098874"
     inkscape:document-units="px"
     inkscape:current-layer="layer1"
     showgrid="false"
     inkscape:window-width="1301"
     inkscape:window-height="744"
     inkscape:window-x="65"
     inkscape:window-y="24"
     inkscape:window-maximized="1"
     inkscape:showpageshadow="false"
     showguides="true"
     inkscape:guide-bbox="true">
    <sodipodi:guide
       position="120,311.42856"
       orientation="0,1"
       id="guide3836" />
    <sodipodi:guide
       position="462.85713,37.142856"
       orientation="0,1"
       id="guide3838" />
    <sodipodi:guide
       position="37.142856,311.42856"
       orientation="1,0"
       id="guide3840" />
    <sodipodi:guide
       position="314.28571,311.42856"
       orientation="1,0"
       id="guide3842" />
  </sodipodi:namedview>
  <metadata
     id="metadata7">
    <rdf:RDF>
      <cc:Work
         rdf:about="">
        <dc:format>image/svg+xml</dc:format>
        <dc:type
           rdf:resource="http://purl.org/dc/dcmitype/StillImage" />
        <dc:title />
      </cc:Work>
    </rdf:RDF>
  </metadata>
  <g
     inkscape:label="Layer 1"
     inkscape:groupmode="layer"
     id="layer1"
     style="opacity:0.93000034"
     transform="translate(0,-698.0315)">
    <g
       transform="matrix(0.58261108,0,0,0.70474267,27.714302,700.02097)"
       id="g3623">
      <path
         style="fill:#777777"
         inkscape:connector-curvature="0"
         d="m 401.38,349.894 c -0.299,-0.084 -0.604,-0.149 -0.911,-0.195 l -62.406,-9.363 C 327.971,333.807 327.019,317.613 327,300.077 c 19.708,-20.313 32,-48.909 32,-80.542 l 0,-2.562 c 15.296,-13.583 24,-32.855 24,-53.438 l 0,-48 c 0,-39.425 -32.075,-71.5 -71.5,-71.5 l -104,0 c -14.929,0 -27.465,10.44 -30.693,24.401 C 149.349,71.753 128,95.198 128,123.535 l 0,40 c 0,20.586 8.703,39.856 24,53.439 l 0,2.561 c 0,31.633 12.292,60.229 31.999,80.542 -0.018,17.536 -0.971,33.729 -11.063,40.259 l -62.406,9.363 c -0.307,0.046 -0.611,0.111 -0.911,0.195 C 95.894,353.739 84.216,362.25 75.847,374.509 68.208,385.699 64,399.207 64,412.545 l 0,30.99 c 0,12.92 11.526,23.431 25.693,23.431 l 331.613,0 c 14.167,0 25.693,-10.511 25.693,-23.431 l 0,-30.99 c 0,-13.337 -4.208,-26.845 -11.847,-38.035 -8.368,-12.259 -20.047,-20.771 -33.772,-24.616 z M 255.5,331.035 c 20.94,0 40.443,-6.74 56.75,-18.303 0.721,13.688 3.556,28.875 14.688,38.028 -6.02,30.648 -35.931,53.275 -71.438,53.275 -35.507,0 -65.418,-22.627 -71.438,-53.275 11.133,-9.153 13.967,-24.34 14.688,-38.028 16.307,11.563 35.81,18.303 56.75,18.303 z M 167,214.227 c 0.042,-0.457 0.041,-0.914 0,-1.369 l 0,-41.324 c 0,-13.509 10.991,-24.5 24.5,-24.5 l 136,0 c 4.142,0 7.5,-3.357 7.5,-7.5 0,-4.142 -3.358,-7.5 -7.5,-7.5 l -136,0 c -21.78,0 -39.5,17.72 -39.5,39.5 l 0,22.605 c -5.817,-9.005 -9,-19.562 -9,-30.605 l 0,-40 c 0,-22.332 18.168,-40.5 40.5,-40.5 4.142,0 7.5,-3.357 7.5,-7.5 0,-9.098 7.402,-16.5 16.5,-16.5 l 104,0 c 31.154,0 56.5,25.346 56.5,56.5 l 0,48 c 0,11.041 -3.183,21.598 -9,30.604 l 0,-30.604 c 0,-4.142 -3.358,-7.5 -7.5,-7.5 -4.142,0 -7.5,3.358 -7.5,7.5 l 0,56 c 0,53.21 -39.701,96.5 -88.5,96.5 -48.799,0 -88.5,-43.29 -88.5,-96.5 l 0,-5.307 z m 265,229.308 c 0,4.57 -4.897,8.431 -10.693,8.431 l -331.614,0 C 83.897,451.966 79,448.105 79,443.535 l 0,-30.99 c 0,-19.008 11.758,-41.543 34.235,-48.084 l 56.587,-8.49 c 8.389,36.441 43.851,63.064 85.678,63.064 41.827,0 77.289,-26.623 85.678,-63.064 l 56.587,8.49 C 420.242,371.002 432,393.537 432,412.545 l 0,30.99 z"
         id="path3625" />
      <path
         style="fill:#777777"
         inkscape:connector-curvature="0"
         d="m 47.5,380.035 -28.229,0 c -2.444,0 -4.271,-1.481 -4.271,-2.807 l 0,-20.051 c 0,-11.261 6.893,-24.589 20.075,-28.519 l 40.826,-6.125 c 0.177,-0.026 0.348,-0.066 0.521,-0.105 0.075,-0.017 0.151,-0.026 0.226,-0.045 0.28,-0.071 0.551,-0.161 0.816,-0.262 0.064,-0.024 0.127,-0.054 0.19,-0.081 0.218,-0.09 0.43,-0.189 0.637,-0.298 0.034,-0.018 0.071,-0.03 0.105,-0.049 0.066,-0.036 0.126,-0.076 0.192,-0.113 0.056,-0.033 0.112,-0.064 0.167,-0.098 9.087,-5.184 12.232,-14.571 13.315,-23.744 9.956,5.908 21.388,9.281 33.544,9.281 10.203,0 20.037,-2.318 29.229,-6.891 3.708,-1.845 5.22,-6.346 3.375,-10.055 -1.845,-3.709 -6.347,-5.22 -10.056,-3.375 -7.098,3.53 -14.685,5.321 -22.548,5.321 C 95.499,292.019 71,265.198 71,232.231 l 0,-31.992 c 0,-7.281 5.923,-13.204 13.204,-13.204 l 19.296,0 c 4.142,0 7.5,-3.357 7.5,-7.5 0,-4.142 -3.358,-7.5 -7.5,-7.5 l -19.296,0 C 68.652,172.035 56,184.687 56,200.239 l 0,3.931 c -0.652,-2.642 -1,-5.379 -1,-8.171 l 0,-25.88 c 0,-12.989 10.567,-23.556 23.556,-23.556 4.142,0 7.5,-3.358 7.5,-7.5 0,-4.427 3.601,-8.028 8.028,-8.028 l 9.416,0 c 4.142,0 7.5,-3.357 7.5,-7.5 0,-4.142 -3.358,-7.5 -7.5,-7.5 l -9.416,0 c -10.271,0 -18.993,6.759 -21.952,16.063 C 53.919,135.165 40,151.047 40,170.119 l 0,25.88 c 0,13.893 5.798,26.904 16,36.173 l 0,0.06 c 0,21.268 8.32,40.475 21.63,54.105 -0.081,9.538 -0.811,18.088 -5.526,21.599 l -39.744,5.963 c -0.307,0.046 -0.611,0.111 -0.911,0.195 C 10.802,319.878 0,340.145 0,357.177 l 0,20.051 c 0,9.818 8.645,17.807 19.271,17.807 l 28.229,0 c 4.142,0 7.5,-3.357 7.5,-7.5 0,-4.142 -3.358,-7.5 -7.5,-7.5 z"
         id="path3627" />
      <path
         style="fill:#777777"
         inkscape:connector-curvature="0"
         d="m 479.551,314.093 c -0.299,-0.083 -0.604,-0.149 -0.911,-0.195 l -39.744,-5.963 c -4.715,-3.511 -5.446,-12.061 -5.527,-21.598 13.31,-13.631 21.63,-32.838 21.63,-54.106 l 0,-0.06 c 10.202,-9.269 16,-22.281 16,-36.181 l 0,-40.456 c 0,-21.78 -17.72,-39.5 -39.5,-39.5 l -24,0 c -4.142,0 -7.5,3.358 -7.5,7.5 0,4.143 3.358,7.5 7.5,7.5 l 24,0 c 13.509,0 24.5,10.991 24.5,24.5 l 0,40.464 c 0,2.792 -0.348,5.529 -1,8.171 l 0,-3.931 c 0,-15.552 -12.652,-28.204 -28.204,-28.204 l -19.295,0 c -4.142,0 -7.5,3.358 -7.5,7.5 0,4.143 3.358,7.5 7.5,7.5 l 19.296,0 c 7.281,0 13.204,5.923 13.204,13.204 l 0,31.992 c 0,32.967 -24.499,59.788 -54.612,59.788 -7.864,0 -15.45,-1.791 -22.548,-5.321 -3.71,-1.845 -8.211,-0.333 -10.056,3.375 -1.845,3.709 -0.333,8.21 3.375,10.055 9.192,4.572 19.026,6.891 29.229,6.891 12.155,0 23.588,-3.373 33.543,-9.281 1.083,9.172 4.229,18.56 13.316,23.744 0.054,0.034 0.111,0.065 0.166,0.098 0.065,0.037 0.126,0.077 0.192,0.113 0.034,0.019 0.071,0.031 0.105,0.049 0.206,0.109 0.418,0.208 0.636,0.298 0.064,0.027 0.127,0.057 0.191,0.081 0.265,0.101 0.535,0.191 0.815,0.262 0.076,0.019 0.152,0.029 0.228,0.046 0.171,0.038 0.342,0.078 0.518,0.104 l 40.825,6.125 c 13.183,3.93 20.076,17.258 20.076,28.519 l 0,20.051 c 0,1.325 -1.827,2.807 -4.271,2.807 l -28.228,0 c -4.142,0 -7.5,3.358 -7.5,7.5 0,4.143 3.358,7.5 7.5,7.5 l 28.229,0 c 10.626,0 19.271,-7.988 19.271,-17.807 l 0,-20.051 c 0,-17.031 -10.802,-37.298 -31.449,-43.083 z"
         id="path3629" />
    </g>
  </g>
</svg>
