<?xml version="1.0" encoding="UTF-8" standalone="no"?>
<!-- Created with Inkscape (http://www.inkscape.org/) -->

<svg
   xmlns:dc="http://purl.org/dc/elements/1.1/"
   xmlns:cc="http://creativecommons.org/ns#"
   xmlns:rdf="http://www.w3.org/1999/02/22-rdf-syntax-ns#"
   xmlns:svg="http://www.w3.org/2000/svg"
   xmlns="http://www.w3.org/2000/svg"
   xmlns:sodipodi="http://sodipodi.sourceforge.net/DTD/sodipodi-0.dtd"
   xmlns:inkscape="http://www.inkscape.org/namespaces/inkscape"
   width="100mm"
   height="100mm"
   viewBox="0 0 354.33071 354.33071"
   id="svg2"
   version="1.1"
   inkscape:version="0.91 r13725"
   sodipodi:docname="menu-user.svg">
  <defs
     id="defs4" />
  <sodipodi:namedview
     id="base"
     pagecolor="#000000"
     bordercolor="#666666"
     borderopacity="1.0"
     inkscape:pageopacity="0"
     inkscape:pageshadow="2"
     inkscape:zoom="0.35"
     inkscape:cx="-9.7524775"
     inkscape:cy="275.6703"
     inkscape:document-units="px"
     inkscape:current-layer="layer1"
     showgrid="false"
     inkscape:window-width="1301"
     inkscape:window-height="744"
     inkscape:window-x="65"
     inkscape:window-y="24"
     inkscape:window-maximized="1"
     inkscape:showpageshadow="false" />
  <metadata
     id="metadata7">
    <rdf:RDF>
      <cc:Work
         rdf:about="">
        <dc:format>image/svg+xml</dc:format>
        <dc:type
           rdf:resource="http://purl.org/dc/dcmitype/StillImage" />
        <dc:title />
      </cc:Work>
    </rdf:RDF>
  </metadata>
  <g
     inkscape:label="Layer 1"
     inkscape:groupmode="layer"
     id="layer1"
     style="opacity:0.93000034"
     transform="translate(0,-698.0315)">
    <path
       d="m 309.18326,965.29541 -48.99547,-22.69499 c -1.15308,-0.61645 -2.43148,-2.12308 -3.5294,-4.13359 l 32.71211,-0.0267 c 0.57151,0.0589 14.05743,1.37787 24.87123,-3.59219 4.09589,-1.88721 7.144,-5.6134 8.36727,-10.2243 1.23328,-4.65367 0.4512,-9.58089 -2.13569,-13.5269 -9.3499,-14.22926 -31.173,-51.41083 -31.85482,-89.12316 0,-0.64873 -1.99031,-64.78223 -61.213,-65.3023 -8.71822,0.075 -16.77968,1.65668 -24.1142,4.5733 -1.59926,-4.35883 -3.95553,-8.90534 -7.45987,-13.18376 -10.29241,-12.56719 -27.0019,-18.93658 -49.66726,-18.93658 -22.66535,0 -39.37484,6.36939 -49.67227,18.92587 -11.871604,14.48123 -10.76867,32.03993 -10.487919,34.98338 l 0,28.51746 c -3.20854,3.90849 -5.013349,8.91072 -5.013349,14.07378 l 0,21.44575 c 0,6.52485 2.77238,12.61009 7.504987,16.6687 4.592231,19.44593 14.202821,34.09873 17.561771,38.80071 l 0,17.7411 c 0,5.18983 -2.64705,9.95081 -6.90339,12.43852 l -44.724093,26.08867 c -14.543727,8.49265 -23.572769,24.75931 -23.572769,42.47352 l 0,22.7217 220.587372,0 10.0267,0 70.1869,0 0,-19.8213 c 0,-16.5775 -8.61294,-31.47157 -22.47484,-38.88642 z m -57.73876,47.98499 -210.560674,0 0,-11.9989 c 0,-13.78439 7.028717,-26.45341 18.343848,-33.04799 l 44.724096,-26.08874 c 7.48492,-4.36956 12.13229,-12.74952 12.13229,-21.85864 l 0,-21.54762 -1.16811,-1.49049 c -0.1203,-0.15548 -12.40804,-16.05214 -17.09552,-37.87854 l -0.4562,-2.12314 -1.709557,-1.17951 c -2.902737,-2.00517 -4.637353,-5.3668 -4.637353,-8.99113 l 0,-21.44575 c 0,-3.00777 1.193184,-5.81178 3.358942,-7.9081 l 1.654408,-1.59235 0,-33.39102 -0.0501,-0.70235 c 0,-0.14477 -1.719594,-15.00666 8.04642,-26.91979 8.30712,-10.13311 22.48486,-15.26936 42.13219,-15.26936 19.57712,0 33.72479,5.09873 42.04194,15.16215 4.13602,4.99686 6.21655,10.57811 7.25431,15.37124 0.0802,0.3753 0.15543,0.74523 0.22562,1.11517 0.0702,0.38067 0.14537,0.76132 0.20052,1.12589 0.0651,0.4182 0.12032,0.81495 0.17547,1.2117 0.0502,0.28417 0.0802,0.57368 0.1103,0.84711 0.0751,0.6648 0.13535,1.3082 0.17547,1.9033 0,0.0482 0,0.0911 0,0.13942 0.0501,0.57903 0.0601,1.12588 0.0751,1.62451 0,0.0964 0,0.17691 0,0.27341 0,0.445 0,0.86857 0,1.2385 0,0.0536 0,0.10724 0,0.16085 0,1.25993 -0.10021,2.01054 -0.10021,2.02662 l -0.0501,34.08265 1.65441,1.59771 c 2.16576,2.09096 3.35893,4.89497 3.35893,7.90274 l 0,21.44575 c 0,4.68054 -2.86763,8.77667 -7.12897,10.18137 l -2.49666,0.8203 -0.80213,2.65392 c -3.35392,11.15714 -8.13165,21.46183 -14.20782,30.62988 -1.48898,2.25718 -2.93782,4.25699 -4.19617,5.785 l -1.24835,1.52263 0,22.11597 c 0,1.35642 0.12534,2.68616 0.32087,3.99433 0.0501,0.27874 0.11028,0.54677 0.16042,0.82562 0.19553,1.07757 0.45622,2.13381 0.77707,3.16323 0.0752,0.24124 0.15542,0.47185 0.24064,0.71317 0.39105,1.12046 0.84726,2.20349 1.37867,3.24353 0.0601,0.11793 0.11531,0.24133 0.17546,0.35926 0.72695,1.37252 1.56419,2.67533 2.52673,3.8764 l 1.14306,1.50652 0.19551,0 c 1.71959,1.81217 3.69485,3.38838 5.94083,4.58945 l 47.89253,25.60616 c 12.00696,6.41224 19.46182,19.31188 19.46182,33.66446 l 0,10.9535 z m 70.1869,0 -60.1602,0 0,-10.9535 c 0,-18.43804 -9.58051,-35.01027 -24.99656,-43.25612 L 202.0931,940.68103 c 0.84724,-2.06947 0.95754,-4.43925 0.21556,-6.72313 -1.22825,-3.77991 -4.43681,-6.21937 -8.17176,-6.21937 l -11.11459,0 c -0.23061,-0.4342 -0.38101,-0.9114 -0.5665,-1.37251 -0.25068,-0.61657 -0.54646,-1.22241 -0.71189,-1.87114 -0.30583,-1.19013 -0.48631,-2.4341 -0.48631,-3.71011 l 0,-18.12705 c 1.14806,-1.50121 2.35628,-3.21151 3.6046,-5.09873 6.21154,-9.38251 11.18979,-19.82658 14.80944,-31.09097 7.07384,-3.46885 11.66607,-10.94806 11.66607,-19.39232 l 0,-21.44575 c 0,-5.16304 -1.80481,-10.16527 -5.01335,-14.07376 l 0,-28.51747 c 0.13033,-1.34036 0.41108,-5.73139 -0.42113,-11.46812 6.45719,-2.71289 13.69146,-4.11222 21.50727,-4.18192 49.33637,0.43428 51.13617,52.60105 51.18629,54.79924 0.73697,40.65578 23.79337,80.03015 33.67468,95.069 0.84725,1.28673 1.10293,2.90592 0.69684,4.43399 -0.23061,0.87922 -0.89236,2.47699 -2.68213,3.29725 -8.42242,3.87629 -19.84786,2.77728 -20.43441,2.75037 l -34.50689,0 c -3.22357,0 -6.1614,1.7532 -7.86094,4.68595 -1.6945,2.92199 -1.85493,6.49264 -0.43114,9.55949 1.56918,3.38301 4.34156,7.90266 8.8987,10.3314 l 48.86512,22.63602 c 10.37262,5.6027 16.81477,16.78665 16.81477,29.23041 l 0,9.0986 z"
       id="path3683"
       inkscape:connector-curvature="0"
       style="fill:#777777" />
  </g>
</svg>
