<?xml version="1.0" encoding="UTF-8" standalone="no"?>
<!-- Created with Inkscape (http://www.inkscape.org/) -->

<svg
   xmlns:dc="http://purl.org/dc/elements/1.1/"
   xmlns:cc="http://creativecommons.org/ns#"
   xmlns:rdf="http://www.w3.org/1999/02/22-rdf-syntax-ns#"
   xmlns:svg="http://www.w3.org/2000/svg"
   xmlns="http://www.w3.org/2000/svg"
   xmlns:sodipodi="http://sodipodi.sourceforge.net/DTD/sodipodi-0.dtd"
   xmlns:inkscape="http://www.inkscape.org/namespaces/inkscape"
   width="100mm"
   height="100mm"
   viewBox="0 0 354.33071 354.33071"
   id="svg2"
   version="1.1"
   inkscape:version="0.91 r13725"
   sodipodi:docname="menu-home.svg">
  <defs
     id="defs4" />
  <sodipodi:namedview
     id="base"
     pagecolor="#000000"
     bordercolor="#666666"
     borderopacity="1.0"
     inkscape:pageopacity="0"
     inkscape:pageshadow="2"
     inkscape:zoom="0.35"
     inkscape:cx="561.67609"
     inkscape:cy="47.098874"
     inkscape:document-units="px"
     inkscape:current-layer="layer1"
     showgrid="false"
     inkscape:window-width="1301"
     inkscape:window-height="744"
     inkscape:window-x="65"
     inkscape:window-y="24"
     inkscape:window-maximized="1"
     inkscape:showpageshadow="false"
     showguides="true"
     inkscape:guide-bbox="true">
    <sodipodi:guide
       position="120,311.42856"
       orientation="0,1"
       id="guide3836" />
    <sodipodi:guide
       position="462.85713,37.142856"
       orientation="0,1"
       id="guide3838" />
    <sodipodi:guide
       position="37.142856,311.42856"
       orientation="1,0"
       id="guide3840" />
    <sodipodi:guide
       position="314.28571,311.42856"
       orientation="1,0"
       id="guide3842" />
  </sodipodi:namedview>
  <metadata
     id="metadata7">
    <rdf:RDF>
      <cc:Work
         rdf:about="">
        <dc:format>image/svg+xml</dc:format>
        <dc:type
           rdf:resource="http://purl.org/dc/dcmitype/StillImage" />
        <dc:title></dc:title>
      </cc:Work>
    </rdf:RDF>
  </metadata>
  <g
     inkscape:label="Layer 1"
     inkscape:groupmode="layer"
     id="layer1"
     style="opacity:0.93000034"
     transform="translate(0,-698.0315)">
    <g
       id="g4393"
       transform="matrix(8.1269487,0,0,8.1269487,44.277139,745.41651)">
      <g
         id="g4345">
        <g
           id="g4347">
          <path
             id="path4349"
             d="m 27.812,32.548 -22.625,0 c -0.276,0 -0.5,-0.224 -0.5,-0.5 l 0,-13.994 c 0,-0.276 0.224,-0.5 0.5,-0.5 0.276,0 0.5,0.224 0.5,0.5 l 0,13.495 21.625,0 0,-13.495 c 0,-0.276 0.224,-0.5 0.5,-0.5 0.276,0 0.5,0.224 0.5,0.5 l 0,13.995 c 0,0.276 -0.223,0.499 -0.5,0.499 z"
             inkscape:connector-curvature="0"
             style="fill:#777777" />
          <path
             id="path4351"
             d="m 27.794,18.578 c -0.123,0 -0.247,-0.045 -0.343,-0.136 L 16.5,8.103 5.554,18.442 c -0.201,0.19 -0.52,0.18 -0.707,-0.02 -0.189,-0.201 -0.181,-0.517 0.02,-0.707 L 16.157,7.052 c 0.193,-0.183 0.495,-0.182 0.687,0 l 11.294,10.663 c 0.201,0.19 0.21,0.506 0.021,0.707 -0.1,0.104 -0.232,0.156 -0.365,0.156 z"
             inkscape:connector-curvature="0"
             style="fill:#777777" />
        </g>
        <path
           id="path4353"
           d="m 32.5,16.559 c -0.123,0 -0.247,-0.045 -0.344,-0.136 L 16.5,1.639 0.844,16.423 c -0.201,0.189 -0.519,0.18 -0.707,-0.021 -0.189,-0.201 -0.181,-0.517 0.02,-0.707 l 16,-15.108 c 0.193,-0.182 0.494,-0.182 0.688,0 l 16,15.108 c 0.2,0.19 0.209,0.506 0.02,0.707 -0.1,0.105 -0.232,0.157 -0.365,0.157 z"
           inkscape:connector-curvature="0"
           style="fill:#777777" />
        <path
           id="path4355"
           d="m 20.491,32.548 -7.981,0 c -0.276,0 -0.5,-0.224 -0.5,-0.5 l 0,-10.835 c 0,-0.276 0.224,-0.5 0.5,-0.5 l 7.981,0 c 0.276,0 0.5,0.224 0.5,0.5 l 0,10.835 c 0,0.277 -0.224,0.5 -0.5,0.5 z m -7.481,-1 6.981,0 0,-9.835 -6.981,0 0,9.835 z"
           inkscape:connector-curvature="0"
           style="fill:#777777" />
      </g>
      <g
         id="g4357" />
      <g
         id="g4359" />
      <g
         id="g4361" />
      <g
         id="g4363" />
      <g
         id="g4365" />
      <g
         id="g4367" />
      <g
         id="g4369" />
      <g
         id="g4371" />
      <g
         id="g4373" />
      <g
         id="g4375" />
      <g
         id="g4377" />
      <g
         id="g4379" />
      <g
         id="g4381" />
      <g
         id="g4383" />
      <g
         id="g4385" />
    </g>
  </g>
</svg>
